/* XPM */
static char * dot_dashed_line[] = {
"32 12 2 1",
" 	c None",
".	c #000000",
"                                ",
"                                ",
"                                ",
"                                ",
"..  ..  ..  ..  ................",
"..  ..  ..  ..  ................",
"                                ",
"                                ",
"                                ",
"                                ",
"                                ",
"                                "};
