/* XPM */
static char * down_xpm[] = {
"13 12 29 1",
" 	c None",
".	c #575F56",
"+	c #636C62",
"@	c #687266",
"#	c #43573E",
"$	c #33482D",
"%	c #2B4126",
"&	c #0B1209",
"*	c #636462",
"=	c #F3F6F2",
"-	c #F0F4EF",
";	c #9EBC97",
">	c #82A878",
",	c #567C4D",
"'	c #C9CDC8",
")	c #EEF2ED",
"!	c #9DBB95",
"~	c #729A67",
"{	c #1D2E19",
"]	c #5A5C5A",
"^	c #E9F0E8",
"/	c #96B58E",
"(	c #45653E",
"_	c #BBC0BA",
":	c #88A880",
"<	c #1C2919",
"[	c #515851",
"}	c #586F53",
"|	c #000000",
"             ",
"             ",
"             ",
"   .+@#$%&   ",
"   *=-;>,    ",
"    ')!~{    ",
"    ]^/(     ",
"     _:<     ",
"     [}      ",
"      |      ",
"             ",
"             "};
