/* XPM */
static char * up_xpm[] = {
"13 12 29 1",
" 	c None",
".	c #000000",
"+	c #586F53",
"@	c #515851",
"#	c #1C2919",
"$	c #88A880",
"%	c #BBC0BA",
"&	c #45653E",
"*	c #96B58E",
"=	c #E9F0E8",
"-	c #5A5C5A",
";	c #1D2E19",
">	c #729A67",
",	c #9DBB95",
"'	c #EEF2ED",
")	c #C9CDC8",
"!	c #567C4D",
"~	c #82A878",
"{	c #9EBC97",
"]	c #F0F4EF",
"^	c #F3F6F2",
"/	c #636462",
"(	c #0B1209",
"_	c #2B4126",
":	c #33482D",
"<	c #43573E",
"[	c #687266",
"}	c #636C62",
"|	c #575F56",
"             ",
"             ",
"      .      ",
"      +@     ",
"     #$%     ",
"     &*=-    ",
"    ;>,')    ",
"    !~{]^/   ",
"   (_:<[}|   ",
"             ",
"             ",
"             "};
